# xmcd
#
# Track frame offsets:
#   150
#   13494
#   31004
#   44504
#   57851
#   60533
#   77283
#   89560
#   103017
#   115614
#   130407
#
# Disc length: 1899 seconds
#
# Revision: 0
# Processed by: cddbd v1.5.1PL0 Copyright (c) Steve Scherf et al.
# Submitted via: Media_Universe 3.0
#
DISCID=8907690b
DTITLE=Chris Curtice - Forever Bound By The Heart
DYEAR=1900
DGENRE=Country
TTITLE0=My Way Or The Highway
TTITLE1=I Laughed 'til I Cried
TTITLE2=That Ol' Truck Bed
TTITLE3=My Angeline
TTITLE4=(Intro) Forever Bound By The Heart
TTITLE5=Forever Bound By The Heart
TTITLE6=Mama Made A Gentle Man Outta Me
TTITLE7=I've Always Known
TTITLE8=Ancient History
TTITLE9=The Fall Of The Year
TTITLE10=If It Was Any Better
EXTD=
EXTT0=
EXTT1=
EXTT2=
EXTT3=
EXTT4=
EXTT5=
EXTT6=
EXTT7=
EXTT8=
EXTT9=
EXTT10=
PLAYORDER=
